<?xml version="1.0" encoding="UTF-8"?>
<svg width="24px" height="24px" stroke-width="1.5" viewBox="0 0 24 24" fill="none" xmlns="http://www.w3.org/2000/svg" color="#2563eb">
<path d="M21 12.5V6a2 2 0 00-2-2h-3.5" stroke="#2563eb" stroke-width="1.5" stroke-linecap="round" stroke-linejoin="round"></path>
<path d="M10 4.5V6a2 2 0 002 2h3.5" stroke="#2563eb" stroke-width="1.5" stroke-linecap="round" stroke-linejoin="round"></path>
<path d="M10 4.5A1.5 1.5 0 0111.5 3h0A1.5 1.5 0 0113 4.5v0A1.5 1.5 0 0111.5 6h0A1.5 1.5 0 0110 4.5v0z" stroke="#2563eb" stroke-width="1.5" stroke-linecap="round" stroke-linejoin="round"></path>
<path d="M3 12.5V6a2 2 0 012-2h1.5M3 20v-7.5M21 20v-7.5" stroke="#2563eb" stroke-width="1.5" stroke-linecap="round" stroke-linejoin="round"></path>
<path d="M10 20.5v-2a2 2 0 012-2h0a2 2 0 012 2v2" stroke="#2563eb" stroke-width="1.5" stroke-linecap="round" stroke-linejoin="round"></path>
</svg>